<?xml version="1.0" encoding="utf-8"?>
<!-- Generator: Adobe Illustrator 26.0.3, SVG Export Plug-In . SVG Version: 6.00 Build 0)  -->
<svg version="1.0" id="katman_1" xmlns="http://www.w3.org/2000/svg" xmlns:xlink="http://www.w3.org/1999/xlink" x="0px" y="0px"
	 viewBox="0 0 800 600" style="enable-background:new 0 0 800 600;" xml:space="preserve">
<style type="text/css">
	.st0{fill:#50B940;}
</style>
<path class="st0" d="M176.8,350.1h-18.9v-39.7H181c13.3,0,20.8,6.3,20.8,18C201.8,341.7,192.7,350.1,176.8,350.1z M157.9,249.1h22.4
	c9.1,0,15,5.6,15,16.3c0,14.2-10.3,20.8-21.3,20.8h-16.1V249.1z M206.8,297.5c15.4-7.7,24.1-22.4,24.1-39.4c0-22.2-15.2-35-39.5-35
	h-71.7c-3.3,0-5.8,2.6-5.8,5.8v145.8c0,3.3,2.6,5.8,5.8,5.8h61.9c35,0,56.8-15.6,56.8-44.8C238.3,313.4,225.7,301.7,206.8,297.5z"/>
<path class="st0" d="M308.9,349.7c-4.9-2.8-6.3-7.5-6.3-14.2V280c0-3.3-2.6-5.8-5.8-5.8h-28.5c-3.3,0-5.8,2.6-5.8,5.8v65.8
	c0,22.6,11.9,35.2,33.2,35.2c3.3,0,9.1-0.2,10.3-4.2l6.3-20.1C313.1,354.2,311.9,351.4,308.9,349.7z"/>
<path class="st0" d="M282.5,260.6c13.5,0,22.7-9.3,22.7-21.2c0-11.9-9.1-21.2-22.7-21.2c-13.3,0-22.7,9.1-22.7,21.2
	C259.8,251.3,268.7,260.6,282.5,260.6z"/>
<path class="st0" d="M383.5,349.6c-4.9-2.8-6.3-7.5-6.3-14.2V226.7c0-3.3-2.6-5.8-5.8-5.8h-28.5c-3.3,0-5.8,2.6-5.8,5.8v119
	c0,22.6,11.2,35.2,31.5,35.2c5.6,0,10.7-0.2,11.9-4.2l6.3-20.1C387.7,353.8,386.3,351,383.5,349.6z"/>
<path class="st0" d="M458.2,349.6c-4.9-2.8-6.3-7.5-6.3-14.2V226.7c0-3.3-2.6-5.8-5.8-5.8h-28.5c-3.3,0-5.8,2.6-5.8,5.8v119
	c0,22.6,11.2,35.2,31.5,35.2c5.6,0,10.7-0.2,11.9-4.2l6.3-20.1C462.4,353.8,461,351,458.2,349.6z"/>
<path class="st0" d="M536.1,284.2c7.9,0,13.3,4.7,13.3,14.5c0,11.7-8.2,18-21.7,18c-3.5,0-8.4-0.5-12.4-1.2
	C516,294,524.4,284.2,536.1,284.2z M672.3,291.4c3.5,0,6.1-1.4,6.8-3.7l6.3-19.4c1.2-3.7-0.7-6.5-4-6.5h-29.2v-23.3
	c0-3.3-2.6-5.8-5.8-5.8h-28.5c-3.3,0-5.8,2.6-5.8,5.8v53c0,36.9-23.6,61.6-64.2,61.6c-19.6,0-27.6-5.8-31.1-20.5
	c5.6,1.2,11.7,1.9,18.7,1.9c32.2,0,51.4-14.2,51.4-37.8c0-23.8-19.2-37.1-46.7-37.1c-38.1,0-64,25.9-64,65.3
	c0,34.8,20.1,56.2,63.5,56.2c33,0,58-12.3,73.1-33.3c3.2,21.5,17.3,33.3,42.5,33.3c10.5,0,22.2-2.1,25.2-11.7l4.4-13.5
	c1.4-4.2-0.7-7.7-4.4-7.7c-2.3,0-7.7,1.2-13.1,1.2c-13.6,0-15.2-7.2-15.2-16.1v-41.8H672.3z"/>
</svg>
