<svg id="Layer_1" data-name="Layer 1" xmlns="http://www.w3.org/2000/svg" xmlns:xlink="http://www.w3.org/1999/xlink" viewBox="0 0 252.86 72.6"><defs><style>.cls-1{fill:none;}.cls-2,.cls-6{fill:#fff;}.cls-3{fill:#12326f;}.cls-4{clip-path:url(#clip-path);}.cls-5{fill:url(#radial-gradient);}.cls-6{fill-rule:evenodd;}</style><clipPath id="clip-path"><rect class="cls-1" x="2.05" y="6.15" width="64.4" height="64.39"/></clipPath><radialGradient id="radial-gradient" cx="-164.5" cy="614.77" r="0.46" gradientTransform="matrix(178.53, 0, 0, -178.53, 29428.74, 109768.64)" gradientUnits="userSpaceOnUse"><stop offset="0" stop-color="#3bc2d4"/><stop offset="0.3" stop-color="#3bc2d4"/><stop offset="0.59" stop-color="#12316f"/><stop offset="1" stop-color="#12316f"/></radialGradient></defs><title>logo-bpd</title><path class="cls-2" d="M121.55,22.43c6.91,0,10.28,3.9,10.28,9.37,0,6.52-4.58,16.94-15.74,16.94-6.56,0-10.42-3.9-10.42-9.7C105.67,32.41,110.66,22.43,121.55,22.43Zm-5.07,23.62c7.13,0,9.2-12.5,9.2-16.18,0-2.8-1.53-4.73-4.37-4.73-7.41,0-9.43,12.22-9.43,15.81C111.88,44,113.66,46.05,116.48,46.05Z"/><path class="cls-2" d="M168.46,22.77,164.4,39.35c-1.15,4.52,1.59,6.39,4.83,6.39,5.45,0,6.89-4.61,7.85-8.5l3.6-14.47h4.15l-4,16.35c-1.88,7.39-7.14,9.62-12.8,9.62-8.39,0-10.59-4.79-9.45-9.55l3.92-16.42Z"/><path class="cls-2" d="M196.45,22.77l-5.57,22.65h8.39l-1.88,3h-13.1l6.23-25.62Z"/><path class="cls-2" d="M212.46,38.26h5.27l-1.48-8.93L204.66,48.39H200l16.47-25.62H220l5.18,25.62h-5.63l-1.35-7.47H211Z"/><path class="cls-2" d="M238.13,34.56h2.17c5.44,0,6.55-3.83,6.55-6.17s-1.77-2.88-4.32-2.88h-3.07L234,48.39h-5.73l6.22-25.62h8.46c4.27,0,10,.56,10,5.44,0,3.63-3.31,7.17-8.46,7.94l7.08,12.24h-6.27Z"/><path class="cls-2" d="M90.84,36h0a7.72,7.72,0,0,0,7.89-7.56c0-1.62-1-2.95-4.59-2.95H91.1L85.46,48.39H79.52L85.8,22.77h9.45c4.63,0,9.82,1.23,9.82,5.65s-3.43,8.87-13,8.87H90.58Z"/><path class="cls-2" d="M143.53,36h0a7.72,7.72,0,0,0,7.84-7.56c0-1.62-1-2.95-4.6-2.95h-3l-5.67,22.88h-6l6.33-25.62h9.39c4.68,0,9.91,1.23,9.91,5.65s-3.43,8.87-12.95,8.87h-1.53Z"/><rect class="cls-2" width="72.66" height="72.6"/><rect class="cls-3" x="2.05" y="2.06" width="68.55" height="68.49"/><g class="cls-4"><rect class="cls-5" x="2.05" y="6.15" width="64.4" height="64.39"/></g><path class="cls-6" d="M42.55,8.79a28.58,28.58,0,0,0-3.67-.58L37.66,21.69a14.9,14.9,0,0,1,1.91.3ZM31.47,22.45,27,9.69a27.68,27.68,0,0,0-4.24,1.89l6.5,11.85a15.62,15.62,0,0,1,2.21-1m-3.84,2-8-10.9a28.13,28.13,0,0,0-4.14,3.72l10,9.12a14.69,14.69,0,0,1,2.16-1.94m15.56-1.14,6.3-12A25.72,25.72,0,0,0,46.1,9.85L41.42,22.54a14,14,0,0,1,1.77.79m3,2.07,9-10.07a27.54,27.54,0,0,0-2.54-2l-7.82,11a14.93,14.93,0,0,1,1.32,1.06m3.92,5.73,12.65-4.79c-.33-.87-.7-1.73-1.11-2.56l-12.12,6a13,13,0,0,1,.58,1.33m-25.8-3.22L13.18,20.19A28.47,28.47,0,0,0,10.47,25l12.37,5.41a14.4,14.4,0,0,1,1.43-2.54m24.25.22,11.23-7.56a30.83,30.83,0,0,0-2-2.58L47.5,26.78q.54.64,1,1.35M50.9,34.4l13.41-1.77c-.13-.92-.29-1.84-.5-2.75L50.64,33c.11.46.19.94.26,1.42M36.45,51.05l.11,13.51A28.25,28.25,0,0,0,45.67,63L41.2,50.22a14.37,14.37,0,0,1-4.75.83M30.57,8.69l2.76,13.24a15.74,15.74,0,0,1,2.4-.29L35.17,8.12a29.81,29.81,0,0,0-4.6.57M22.19,32.27l-13-3.73a28.33,28.33,0,0,0-1,5.93l13.47.89a14.38,14.38,0,0,1,.54-3.09m14.14,4.06,3.39,2H50.89A14.66,14.66,0,0,1,49,43.72l11.69,6.79a28.23,28.23,0,0,0,3.82-14.18ZM43,49.46l6.1,12.06a28.27,28.27,0,0,0,9.58-7.93L48,45.33a15,15,0,0,1-5,4.13M25.27,62.3a28.54,28.54,0,0,0,7.59,2l1.66-13.41a14.21,14.21,0,0,1-4-1.06Zm-3.62-25-13.47.89a28.33,28.33,0,0,0,1,5.93l13-3.72a14.46,14.46,0,0,1-.53-3.1m1.19,4.92L10.47,47.61a28.38,28.38,0,0,0,3.54,6l10.67-8.25a15.24,15.24,0,0,1-1.84-3.12M26,46.79l-9.5,9.58A28,28,0,0,0,22,60.62L28.83,49A15.08,15.08,0,0,1,26,46.79"/></svg>